#!OML:ASF H:\BabyWalks\Project 1\Capture day 1\Session 1\baby.ASF
:FULLY-SPECIFIED
:DEGREES
656
root -10.6895 16.7759 1.00327 524.1 -77.7011 -544.981
lowerback 4.9378 0.0896414 9.48509
upperback 5.16477 0.0782525 2.94545
thorax 2.65437 0.177914 -2.2497
lowerneck 0.251548 3.76357 8.22097
upperneck 25.3046 6.40776 -13.0398
head 8.41429 2.2431 -5.48985
rclavicle 8.34896e-015 5.40694e-014
rhumerus -42.3419 21.3516 -77.8396
rradius 86.1365
rwrist -6.80082
rhand -5.28166 -15.6541
rfingers 7.12502
rthumb 20.5228 -44.5893
lclavicle 8.34896e-015 5.40694e-014
lhumerus -40.8153 -14.3647 83.3128
lradius 82.6564
lwrist 2.17712
lhand -2.40306 0.418511
lfingers 7.12502
lthumb 23.2868 29.0303
rfemur 11.9238 7.94777 13.5568
rtibia 39.3651
rfoot -26.1632 -13.3642
rtoes -6.89018
lfemur 21.165 9.13847 -19.2988
ltibia 32.9867
lfoot -28.8307 16.0852
ltoes -4.50471
657
root -10.6839 16.7579 1.06156 528.073 -78.0018 -549.043
lowerback 5.01547 -0.0505536 9.32397
upperback 5.18749 -0.108543 2.98137
thorax 2.61197 0.0766393 -2.119
lowerneck 0.357641 3.82966 8.15997
upperneck 24.9415 6.66858 -13.8998
head 8.32281 2.29987 -5.75563
rclavicle 1.43125e-014 9.54166e-015
rhumerus -42.2643 21.4927 -77.1948
rradius 86.7579
rwrist -7.06993
rhand -5.13245 -15.6689
rfingers 7.12502
rthumb 20.6662 -44.5886
lclavicle 1.43125e-014 9.54166e-015
lhumerus -40.5831 -14.6341 83.4687
lradius 82.9177
lwrist 2.14996
lhand -2.38593 0.532082
lfingers 7.12502
lthumb 23.3032 29.1418
rfemur 11.592 8.19198 12.4975
rtibia 40.1098
rfoot -26.461 -13.786
rtoes -6.96004
lfemur 21.2162 9.60061 -20.1764
ltibia 32.6925
lfoot -28.7506 15.5331
ltoes -4.48898
658
root -10.6763 16.7405 1.12047 532.094 -78.2737 -553.118
lowerback 5.09525 -0.192682 9.19211
upperback 5.20817 -0.297717 3.02913
thorax 2.56788 -0.0255032 -1.99149
lowerneck 0.451202 3.88879 8.10253
upperneck 24.5615 6.90936 -14.754
head 8.22848 2.35051 -6.02143
rclavicle 9.14409e-015 -4.77083e-015
rhumerus -42.182 21.5759 -76.5346
rradius 87.3317
rwrist -7.35242
rhand -4.94277 -15.7137
rfingers 7.12502
rthumb 20.8484 -44.6135
lclavicle 9.14409e-015 -4.77083e-015
lhumerus -40.3508 -14.9332 83.6265
lradius 83.1493
lwrist 2.11885
lhand -2.3326 0.663809
lfingers 7.12502
lthumb 23.3544 29.267
rfemur 11.2549 8.41631 11.4673
rtibia 40.8011
rfoot -26.7213 -14.1902
rtoes -7.02576
lfemur 21.2084 10.0461 -21.0112
ltibia 32.4384
lfoot -28.6798 14.9451
ltoes -4.43606
659
root -10.6667 16.7237 1.18002 536.16 -78.5192 -557.205
lowerback 5.17285 -0.33633 9.09264
upperback 5.22726 -0.488995 3.0868
thorax 2.52485 -0.128082 -1.87094
lowerneck 0.520785 3.94134 8.0488
upperneck 24.1812 7.13013 -15.5956
head 8.13861 2.39451 -6.28535
rclavicle 2.50469e-014 -1.11319e-014
rhumerus -42.0979 21.5998 -75.8656
rradius 87.8501
rwrist -7.66764
rhand -4.74342 -15.7795
rfingers 7.12502
rthumb 21.0399 -44.6581
lclavicle 2.50469e-014 -1.11319e-014
lhumerus -40.1155 -15.2617 83.7862
lradius 83.343
lwrist 2.0902
lhand -2.24097 0.818568
lfingers 7.12502
lthumb 23.4423 29.4106
rfemur 10.9109 8.61955 10.4634
rtibia 41.4378
rfoot -26.9414 -14.5757
rtoes -7.08013
lfemur 21.1391 10.4741 -21.8095
ltibia 32.2323
lfoot -28.6207 14.3339
ltoes -4.33897
660
root -10.6547 16.708 1.24022 540.265 -78.7461 -561.291
lowerback 5.24549 -0.481073 9.02934
upperback 5.23914 -0.681141 3.1539
thorax 2.4784 -0.23052 -1.75998
lowerneck 0.567159 3.9858 8.00413
upperneck 23.809 7.32964 -16.4251
head 8.05571 2.43105 -6.54916
rclavicle 3.26007e-014 -4.6118e-014
rhumerus -42.0197 21.5612 -75.1932
rradius 88.3086
rwrist -8.02008
rhand -4.56034 -15.8666
rfingers 7.12502
rthumb 21.2158 -44.7256
lclavicle 3.26007e-014 -4.6118e-014
lhumerus -39.8838 -15.62 83.9509
lradius 83.4957
lwrist 2.06347
lhand -2.10109 0.997071
lfingers 7.12502
lthumb 23.5764 29.5719
rfemur 10.5566 8.80145 9.48906
rtibia 42.0218
rfoot -27.135 -14.9264
rtoes -7.07434
lfemur 20.9979 10.8782 -22.5751
ltibia 32.0761
lfoot -28.5708 13.711
ltoes -4.1974
661
root -10.6401 16.6936 1.30081 544.406 -78.9513 -565.368
lowerback 5.30944 -0.625692 8.99736
upperback 5.24235 -0.872995 3.23428
thorax 2.42901 -0.332474 -1.65206
lowerneck 0.614681 4.01482 7.99338
upperneck 23.4221 7.5015 -17.2784
head 7.96814 2.45807 -6.83045
rclavicle -3.97569e-015 -3.49861e-014
rhumerus -41.9478 21.4658 -74.5148
rradius 88.7058
rwrist -8.39806
rhand -4.38735 -15.9697
rfingers 7.12502
rthumb 21.382 -44.81
lclavicle -3.97569e-015 -3.49861e-014
lhumerus -39.6464 -15.9997 84.1215
lradius 83.5979
lwrist 2.04462
lhand -1.91075 1.2177
lfingers 7.12502
lthumb 23.759 29.7689
rfemur 10.1828 8.96217 8.54764
rtibia 42.5581
rfoot -27.2975 -15.2571
rtoes -7.03968
lfemur 20.7813 11.2567 -23.3131
ltibia 31.9655
lfoot -28.5272 13.0823
ltoes -4.01782
